<svg xmlns="http://www.w3.org/2000/svg" version="1.1" xmlns:xlink="http://www.w3.org/1999/xlink" xmlns:svgjs="http://svgjs.com/svgjs" width="1536" height="800" preserveAspectRatio="none" viewBox="0 0 1536 800">
    <g mask="url(&quot;#SvgjsMask1033&quot;)" fill="none">
        <path d="M83.67391428403447 128.37680359403507L154.53592632416778 85.7986111740621 55.23763167414165 0.7946893238486155z" fill="rgba(67, 67, 67, 0.09)" class="triangle-float3"></path>
        <path d="M238.70664429511254 539.0314215865974L95.19735228590159 503.250536420502 59.416467119806185 646.7598284297129 202.92575912901714 682.5407135958084z" fill="rgba(67, 67, 67, 0.09)" class="triangle-float2"></path>
        <path d="M179.18923165356784 222.26060099413957L236.97668284597893 20.731809032973445 35.44789088481281-37.05564215943764-22.339560307598276 164.47314980172848z" fill="rgba(67, 67, 67, 0.09)" class="triangle-float3"></path>
        <path d="M1630.974959873116 426.26610316391935L1587.6084022192404 252.33234057267194 1457.0411972818686 469.632660817795z" fill="rgba(67, 67, 67, 0.09)" class="triangle-float3"></path>
        <path d="M1344.8685322462547 44.64331250133951L1256.3666804349107 142.93457670857688 1354.657944642148 231.43642851992092 1443.1597964534922 133.14516431268356z" fill="rgba(67, 67, 67, 0.09)" class="triangle-float2"></path>
        <path d="M591.6815545476348 562.4165686541485L379.37846960649273 402.1172702529293 347.01427764283835 632.4004618405461z" fill="rgba(67, 67, 67, 0.09)" class="triangle-float3"></path>
        <path d="M590.568745429534 97.23247975976145L474.30322713519024 298.6102646138938 791.9465302836663 213.49799805410527z" fill="rgba(67, 67, 67, 0.09)" class="triangle-float3"></path>
        <path d="M725.1964993922422 587.8330366924786L644.1321898457711 622.2427945883754 736.278981462852 726.6343799601337z" fill="rgba(67, 67, 67, 0.09)" class="triangle-float1"></path>
        <path d="M1324.4760372669664 195.45431531194157L1380.5459957441267 321.3895039629262 1506.4811843951113 265.31954548576584 1450.411225917951 139.38435683478122z" fill="rgba(67, 67, 67, 0.09)" class="triangle-float2"></path>
        <path d="M1106.2271544939467 453.11027390145796L1222.6948587722243 292.8062314140536 1062.39081628482 176.33852713577608 945.9231120065424 336.6425696231804z" fill="rgba(67, 67, 67, 0.09)" class="triangle-float1"></path>
        <path d="M511.2784136143913 78.55548994734198L283.18542341741033 148.2905152762085 352.92044874627686 376.3835054731895 581.0134389432578 306.64848014432295z" fill="rgba(67, 67, 67, 0.09)" class="triangle-float2"></path>
        <path d="M1015.0018398166795 387.4362999809988L901.1478851100285 295.23918534344534 819.7791905070238 512.1186747221985z" fill="rgba(67, 67, 67, 0.09)" class="triangle-float3"></path>
        <path d="M999.7155166663824 119.99823181834853L1011.27718535988 287.63349046241444 1134.467570821785 207.63271873452504z" fill="rgba(67, 67, 67, 0.09)" class="triangle-float3"></path>
        <path d="M1405.4821679307609 90.57269439763873L1321.6838064436513 51.49687669535869 1304.969260633786 196.73232777716296z" fill="rgba(67, 67, 67, 0.09)" class="triangle-float2"></path>
        <path d="M383.46033482247054 298.4452653740387L298.9299354175687 173.12379456353864 173.60846460706864 257.6541939684405 258.1388640119705 382.97566477894054z" fill="rgba(67, 67, 67, 0.09)" class="triangle-float3"></path>
        <path d="M735.3916955462485 144.62815129994624L609.6154623921612 220.20213661186588 685.1894477040809 345.97836976595306 810.9656808581681 270.40438445403345z" fill="rgba(67, 67, 67, 0.09)" class="triangle-float3"></path>
        <path d="M1574.1791492682726 392.69192324191556L1371.2469891074293 399.7784704293548 1378.3335362948685 602.7106305901982 1581.2656964557118 595.6240834027589z" fill="rgba(67, 67, 67, 0.09)" class="triangle-float3"></path>
        <path d="M310.7076049608686 662.5407692661067L368.55573574006496 758.8162264142526 484.0448560726856 623.9063016713851z" fill="rgba(67, 67, 67, 0.09)" class="triangle-float2"></path>
        <path d="M855.8215946426521 773.2640382000101L877.4702503513254 596.9498864086256 701.1560985599409 575.3012306999524 679.5074428512677 751.6153824913368z" fill="rgba(67, 67, 67, 0.09)" class="triangle-float3"></path>
    </g>
    <defs>
        <mask id="SvgjsMask1033">
            <rect width="1536" height="800" fill="#ffffff"></rect>
        </mask>
        <style>
            /* @keyframes float1 {
                0%{transform: translate(0, 0)}
                50%{transform: translate(-10px, 0)}
                100%{transform: translate(0, 0)}
            }

            .triangle-float1 {
                animation: float1 5s infinite;
            }

            @keyframes float2 {
                0%{transform: translate(0, 0)}
                50%{transform: translate(-5px, -5px)}
                100%{transform: translate(0, 0)}
            }

            .triangle-float2 {
                animation: float2 4s infinite;
            }

            @keyframes float3 {
                0%{transform: translate(0, 0)}
                50%{transform: translate(0, -10px)}
                100%{transform: translate(0, 0)}
            }

            .triangle-float3 {
                animation: float3 6s infinite;
            } */
        </style>
    </defs>
</svg>